# xmcd
#
# Track frame offsets:
#	150
#	12876
#	28598
#	43324
#	59891
#	85683
#	115733
#	134986
#	148359
#	166006
#	182992
#	201382
#	217335
#	235754
#	248728
#
# Disc length: 3579 seconds
#
# Revision: 1
# Processed by: cddbd v1.4PL0 Copyright (c) Steve Scherf et al.
# Submitted via: audiograbber 1.81.02
#
DISCID=eb0df90f
DTITLE=Blue Tales - This is..
DYEAR=1900
DGENRE=
TTITLE0=Rock `n Roll Bus
TTITLE1=I Don`t Care
TTITLE2=Waiting For Someone
TTITLE3=Put On The Helmet
TTITLE4=Get With It
TTITLE5=Back
TTITLE6=365503-1
TTITLE7=When You Touch Me
TTITLE8=Too Bad1
TTITLE9=Mr. Landlord
TTITLE10=Big Brother
TTITLE11=I`ll Be The One For You
TTITLE12=(she`s got) No Mercy
TTITLE13=Midnite Rag
TTITLE14=Sir Marlowe`s Wedding March
EXTD=
EXTT0=
EXTT1=
EXTT2=
EXTT3=
EXTT4=
EXTT5=
EXTT6=
EXTT7=
EXTT8=
EXTT9=
EXTT10=
EXTT11=
EXTT12=
EXTT13=
EXTT14=
PLAYORDER=
